<?xml version="1.0" encoding="UTF-8" standalone="no"?><svg xmlns="http://www.w3.org/2000/svg" xmlns:xlink="http://www.w3.org/1999/xlink" contentScriptType="application/ecmascript" contentStyleType="text/css" height="1043px" preserveAspectRatio="none" style="width:770px;height:1043px;" version="1.1" viewBox="0 0 770 1043" width="770px" zoomAndPan="magnify"><defs><filter height="300%" id="fluvtsvso0lx" width="300%" x="-1" y="-1"><feGaussianBlur result="blurOut" stdDeviation="2.0"/><feColorMatrix in="blurOut" result="blurOut2" type="matrix" values="0 0 0 0 0 0 0 0 0 0 0 0 0 0 0 0 0 0 .4 0"/><feOffset dx="4.0" dy="4.0" in="blurOut2" result="blurOut3"/><feBlend in="SourceGraphic" in2="blurOut3" mode="normal"/></filter></defs><g><rect fill="#DDDDDD" height="1031.3281" rx="10" ry="10" style="stroke:#A80036;stroke-width:1.0;" width="62" x="431.5" y="6"/><text fill="#000000" font-family="sans-serif" font-size="13" font-weight="bold" lengthAdjust="spacing" textLength="48" x="438.5" y="19.4951">Service</text><rect fill="#FFFFFF" filter="url(#fluvtsvso0lx)" height="765.4063" style="stroke:#A80036;stroke-width:1.0;" width="10" x="457.5" y="166.3125"/><rect fill="#FFFFFF" filter="url(#fluvtsvso0lx)" height="632.3516" rx="10" ry="10" style="stroke:#000000;stroke-width:2.0;" width="743" x="10" y="225.6641"/><rect fill="#FFFFFF" filter="url(#fluvtsvso0lx)" height="48.7031" rx="10" ry="10" style="stroke:#000000;stroke-width:2.0;" width="469.5" x="30" y="251.0156"/><rect fill="#FFFFFF" filter="url(#fluvtsvso0lx)" height="48.7031" rx="10" ry="10" style="stroke:#000000;stroke-width:2.0;" width="469.5" x="30" y="313.7188"/><rect fill="#FFFFFF" filter="url(#fluvtsvso0lx)" height="444.2422" rx="10" ry="10" style="stroke:#000000;stroke-width:2.0;" width="723" x="20" y="406.7734"/><rect fill="#FFFFFF" height="395.5391" style="stroke:none;stroke-width:1.0;" width="723" x="20" y="455.4766"/><rect fill="#FFFFFF" filter="url(#fluvtsvso0lx)" height="379.5391" rx="10" ry="10" style="stroke:#000000;stroke-width:2.0;" width="703" x="30" y="464.4766"/><rect fill="#FFFFFF" height="106.8906" style="stroke:none;stroke-width:1.0;" width="703" x="30" y="586.8828"/><rect fill="#FFFFFF" height="150.2422" style="stroke:none;stroke-width:1.0;" width="703" x="30" y="693.7734"/><line style="stroke:#A80036;stroke-width:1.0;stroke-dasharray:5.0,5.0;" x1="57" x2="57" y1="89.6094" y2="949.7188"/><line style="stroke:#A80036;stroke-width:1.0;stroke-dasharray:5.0,5.0;" x1="462.5" x2="462.5" y1="89.6094" y2="949.7188"/><line style="stroke:#A80036;stroke-width:1.0;stroke-dasharray:5.0,5.0;" x1="698" x2="698" y1="89.6094" y2="949.7188"/><text fill="#000000" font-family="sans-serif" font-size="14" lengthAdjust="spacing" textLength="29" x="40" y="86.5332">User</text><ellipse cx="57.5" cy="15" fill="#FEFECE" filter="url(#fluvtsvso0lx)" rx="8" ry="8" style="stroke:#A80036;stroke-width:2.0;"/><path d="M57.5,23 L57.5,50 M44.5,31 L70.5,31 M57.5,50 L44.5,65 M57.5,50 L70.5,65 " fill="none" filter="url(#fluvtsvso0lx)" style="stroke:#A80036;stroke-width:2.0;"/><text fill="#000000" font-family="sans-serif" font-size="14" lengthAdjust="spacing" textLength="29" x="40" y="963.252">User</text><ellipse cx="57.5" cy="976.3281" fill="#FEFECE" filter="url(#fluvtsvso0lx)" rx="8" ry="8" style="stroke:#A80036;stroke-width:2.0;"/><path d="M57.5,984.3281 L57.5,1011.3281 M44.5,992.3281 L70.5,992.3281 M57.5,1011.3281 L44.5,1026.3281 M57.5,1011.3281 L70.5,1026.3281 " fill="none" filter="url(#fluvtsvso0lx)" style="stroke:#A80036;stroke-width:2.0;"/><rect fill="#FEFECE" filter="url(#fluvtsvso0lx)" height="31.6094" rx="10" ry="10" style="stroke:#A80036;stroke-width:1.5;" width="50" x="435.5" y="53"/><text fill="#000000" font-family="sans-serif" font-size="14" lengthAdjust="spacing" textLength="36" x="442.5" y="74.5332">Client</text><rect fill="#FEFECE" filter="url(#fluvtsvso0lx)" height="31.6094" rx="10" ry="10" style="stroke:#A80036;stroke-width:1.5;" width="50" x="435.5" y="948.7188"/><text fill="#000000" font-family="sans-serif" font-size="14" lengthAdjust="spacing" textLength="36" x="442.5" y="970.252">Client</text><text fill="#000000" font-family="sans-serif" font-size="14" lengthAdjust="spacing" textLength="42" x="674.5" y="86.5332">Server</text><path d="M678,44 L678,68 M678,56 L695,56 " fill="none" filter="url(#fluvtsvso0lx)" style="stroke:#A80036;stroke-width:2.0;"/><ellipse cx="707" cy="56" fill="#FEFECE" filter="url(#fluvtsvso0lx)" rx="12" ry="12" style="stroke:#A80036;stroke-width:2.0;"/><text fill="#000000" font-family="sans-serif" font-size="14" lengthAdjust="spacing" textLength="42" x="674.5" y="963.252">Server</text><path d="M678,970.3281 L678,994.3281 M678,982.3281 L695,982.3281 " fill="none" filter="url(#fluvtsvso0lx)" style="stroke:#A80036;stroke-width:2.0;"/><ellipse cx="707" cy="982.3281" fill="#FEFECE" filter="url(#fluvtsvso0lx)" rx="12" ry="12" style="stroke:#A80036;stroke-width:2.0;"/><rect fill="#FFFFFF" filter="url(#fluvtsvso0lx)" height="765.4063" style="stroke:#A80036;stroke-width:1.0;" width="10" x="457.5" y="166.3125"/><rect fill="#EEEEEE" filter="url(#fluvtsvso0lx)" height="3" style="stroke:#EEEEEE;stroke-width:1.0;" width="763" x="0" y="120.7852"/><line style="stroke:#000000;stroke-width:1.0;" x1="0" x2="763" y1="120.7852" y2="120.7852"/><line style="stroke:#000000;stroke-width:1.0;" x1="0" x2="763" y1="123.7852" y2="123.7852"/><rect fill="#EEEEEE" filter="url(#fluvtsvso0lx)" height="24.3516" style="stroke:#000000;stroke-width:2.0;" width="97" x="333" y="109.6094"/><text fill="#000000" font-family="sans-serif" font-size="13" font-weight="bold" lengthAdjust="spacing" textLength="79" x="339" y="127.1045">Initialization</text><polygon fill="#A80036" points="445.5,162.3125,455.5,166.3125,445.5,170.3125,449.5,166.3125" style="stroke:#A80036;stroke-width:1.0;"/><line style="stroke:#A80036;stroke-width:2.0;" x1="57.5" x2="451.5" y1="166.3125" y2="166.3125"/><text fill="#000000" font-family="sans-serif" font-size="13" font-weight="bold" lengthAdjust="spacing" textLength="29" x="64.5" y="161.4561">[001]</text><text fill="#000000" font-family="sans-serif" font-size="13" lengthAdjust="spacing" textLength="156" x="97.5" y="161.4561">Navigates to App Route Url</text><rect fill="#EEEEEE" filter="url(#fluvtsvso0lx)" height="3" style="stroke:#EEEEEE;stroke-width:1.0;" width="763" x="0" y="195.4883"/><line style="stroke:#000000;stroke-width:1.0;" x1="0" x2="763" y1="195.4883" y2="195.4883"/><line style="stroke:#000000;stroke-width:1.0;" x1="0" x2="763" y1="198.4883" y2="198.4883"/><rect fill="#EEEEEE" filter="url(#fluvtsvso0lx)" height="24.3516" style="stroke:#000000;stroke-width:2.0;" width="71" x="346" y="184.3125"/><text fill="#000000" font-family="sans-serif" font-size="13" font-weight="bold" lengthAdjust="spacing" textLength="53" x="352" y="201.8076">Runtime</text><path d="M20,225.6641 L83,225.6641 L83,233.6641 L73,243.6641 L10,243.6641 L10,235.6641 " fill="#EEEEEE" style="stroke:#000000;stroke-width:1.0;"/><rect fill="none" height="632.3516" rx="10" ry="10" style="stroke:#000000;stroke-width:2.0;" width="743" x="10" y="225.6641"/><text fill="#000000" font-family="sans-serif" font-size="13" font-weight="bold" lengthAdjust="spacing" textLength="28" x="25" y="240.1592">loop</text><text fill="#000000" font-family="sans-serif" font-size="11" font-weight="bold" lengthAdjust="spacing" textLength="27" x="98" y="239.083">[0..n]</text><path d="M40,251.0156 L95,251.0156 L95,259.0156 L85,269.0156 L30,269.0156 L30,261.0156 " fill="#EEEEEE" style="stroke:#000000;stroke-width:1.0;"/><rect fill="none" height="48.7031" rx="10" ry="10" style="stroke:#000000;stroke-width:2.0;" width="469.5" x="30" y="251.0156"/><text fill="#000000" font-family="sans-serif" font-size="13" font-weight="bold" lengthAdjust="spacing" textLength="20" x="45" y="265.5107">opt</text><polygon fill="#A80036" points="445.5,287.7188,455.5,291.7188,445.5,295.7188,449.5,291.7188" style="stroke:#A80036;stroke-width:1.0;"/><line style="stroke:#A80036;stroke-width:2.0;" x1="57.5" x2="451.5" y1="291.7188" y2="291.7188"/><text fill="#000000" font-family="sans-serif" font-size="13" font-weight="bold" lengthAdjust="spacing" textLength="29" x="64.5" y="286.8623">[002]</text><text fill="#000000" font-family="sans-serif" font-size="13" lengthAdjust="spacing" textLength="172" x="97.5" y="286.8623">Sets the start location marker</text><path d="M40,313.7188 L95,313.7188 L95,321.7188 L85,331.7188 L30,331.7188 L30,323.7188 " fill="#EEEEEE" style="stroke:#000000;stroke-width:1.0;"/><rect fill="none" height="48.7031" rx="10" ry="10" style="stroke:#000000;stroke-width:2.0;" width="469.5" x="30" y="313.7188"/><text fill="#000000" font-family="sans-serif" font-size="13" font-weight="bold" lengthAdjust="spacing" textLength="20" x="45" y="328.2139">opt</text><polygon fill="#A80036" points="445.5,350.4219,455.5,354.4219,445.5,358.4219,449.5,354.4219" style="stroke:#A80036;stroke-width:1.0;"/><line style="stroke:#A80036;stroke-width:2.0;" x1="57.5" x2="451.5" y1="354.4219" y2="354.4219"/><text fill="#000000" font-family="sans-serif" font-size="13" font-weight="bold" lengthAdjust="spacing" textLength="29" x="64.5" y="349.5654">[003]</text><text fill="#000000" font-family="sans-serif" font-size="13" lengthAdjust="spacing" textLength="167" x="97.5" y="349.5654">Sets the end location marker</text><polygon fill="#A80036" points="445.5,387.7734,455.5,391.7734,445.5,395.7734,449.5,391.7734" style="stroke:#A80036;stroke-width:1.0;"/><line style="stroke:#A80036;stroke-width:2.0;" x1="57.5" x2="451.5" y1="391.7734" y2="391.7734"/><text fill="#000000" font-family="sans-serif" font-size="13" font-weight="bold" lengthAdjust="spacing" textLength="29" x="64.5" y="386.917">[004]</text><text fill="#000000" font-family="sans-serif" font-size="13" lengthAdjust="spacing" textLength="185" x="97.5" y="386.917">Presses "Get Directions" button</text><path d="M30,406.7734 L81,406.7734 L81,414.7734 L71,424.7734 L20,424.7734 L20,416.7734 " fill="#EEEEEE" style="stroke:#000000;stroke-width:1.0;"/><rect fill="none" height="444.2422" rx="10" ry="10" style="stroke:#000000;stroke-width:2.0;" width="723" x="20" y="406.7734"/><text fill="#000000" font-family="sans-serif" font-size="13" font-weight="bold" lengthAdjust="spacing" textLength="16" x="35" y="421.2686">alt</text><text fill="#000000" font-family="sans-serif" font-size="11" font-weight="bold" lengthAdjust="spacing" textLength="257" x="96" y="420.1924">[start and/or end location(s) are/is not defined]</text><polygon fill="#A80036" points="68.5,443.4766,58.5,447.4766,68.5,451.4766,64.5,447.4766" style="stroke:#A80036;stroke-width:1.0;"/><line style="stroke:#A80036;stroke-width:2.0;stroke-dasharray:2.0,2.0;" x1="62.5" x2="456.5" y1="447.4766" y2="447.4766"/><text fill="#000000" font-family="sans-serif" font-size="13" font-weight="bold" lengthAdjust="spacing" textLength="29" x="74.5" y="442.6201">[005]</text><text fill="#000000" font-family="sans-serif" font-size="13" lengthAdjust="spacing" textLength="343" x="107.5" y="442.6201">Informs that the necessary location markers are not defined</text><line style="stroke:#000000;stroke-width:1.0;stroke-dasharray:2.0,2.0;" x1="20" x2="743" y1="456.4766" y2="456.4766"/><path d="M40,464.4766 L91,464.4766 L91,472.4766 L81,482.4766 L30,482.4766 L30,474.4766 " fill="#EEEEEE" style="stroke:#000000;stroke-width:1.0;"/><rect fill="none" height="379.5391" rx="10" ry="10" style="stroke:#000000;stroke-width:2.0;" width="703" x="30" y="464.4766"/><text fill="#000000" font-family="sans-serif" font-size="13" font-weight="bold" lengthAdjust="spacing" textLength="16" x="45" y="478.9717">alt</text><text fill="#000000" font-family="sans-serif" font-size="11" font-weight="bold" lengthAdjust="spacing" textLength="101" x="106" y="477.8955">[connection error]</text><line style="stroke:#A80036;stroke-width:2.0;" x1="680.5" x2="690.5" y1="500.1797" y2="510.1797"/><line style="stroke:#A80036;stroke-width:2.0;" x1="680.5" x2="690.5" y1="510.1797" y2="500.1797"/><line style="stroke:#A80036;stroke-width:2.0;" x1="467.5" x2="685.5" y1="505.1797" y2="505.1797"/><text fill="#000000" font-family="sans-serif" font-size="13" font-weight="bold" lengthAdjust="spacing" textLength="29" x="474.5" y="500.3232">[006]</text><text fill="#000000" font-family="sans-serif" font-size="13" lengthAdjust="spacing" textLength="166" x="507.5" y="500.3232">Queries for Directions Result</text><line style="stroke:#A80036;stroke-width:2.0;" x1="467.5" x2="509.5" y1="535.5313" y2="535.5313"/><line style="stroke:#A80036;stroke-width:2.0;" x1="509.5" x2="509.5" y1="535.5313" y2="548.5313"/><line style="stroke:#A80036;stroke-width:2.0;" x1="468.5" x2="509.5" y1="548.5313" y2="548.5313"/><polygon fill="#A80036" points="478.5,544.5313,468.5,548.5313,478.5,552.5313,474.5,548.5313" style="stroke:#A80036;stroke-width:1.0;"/><text fill="#000000" font-family="sans-serif" font-size="13" font-weight="bold" lengthAdjust="spacing" textLength="29" x="474.5" y="530.6748">[007]</text><text fill="#000000" font-family="sans-serif" font-size="13" lengthAdjust="spacing" textLength="179" x="507.5" y="530.6748">Informs for the connection error</text><polygon fill="#A80036" points="68.5,574.8828,58.5,578.8828,68.5,582.8828,64.5,578.8828" style="stroke:#A80036;stroke-width:1.0;"/><line style="stroke:#A80036;stroke-width:2.0;stroke-dasharray:2.0,2.0;" x1="62.5" x2="456.5" y1="578.8828" y2="578.8828"/><text fill="#000000" font-family="sans-serif" font-size="13" font-weight="bold" lengthAdjust="spacing" textLength="29" x="74.5" y="574.0264">[008]</text><text fill="#000000" font-family="sans-serif" font-size="13" lengthAdjust="spacing" textLength="179" x="107.5" y="574.0264">Informs for the connection error</text><line style="stroke:#000000;stroke-width:1.0;stroke-dasharray:2.0,2.0;" x1="30" x2="733" y1="587.8828" y2="587.8828"/><text fill="#000000" font-family="sans-serif" font-size="11" font-weight="bold" lengthAdjust="spacing" textLength="77" x="35" y="599.3018">[server error]</text><polygon fill="#A80036" points="686.5,621.0703,696.5,625.0703,686.5,629.0703,690.5,625.0703" style="stroke:#A80036;stroke-width:1.0;"/><line style="stroke:#A80036;stroke-width:2.0;" x1="467.5" x2="692.5" y1="625.0703" y2="625.0703"/><text fill="#000000" font-family="sans-serif" font-size="13" font-weight="bold" lengthAdjust="spacing" textLength="29" x="474.5" y="620.2139">[009]</text><text fill="#000000" font-family="sans-serif" font-size="13" lengthAdjust="spacing" textLength="166" x="507.5" y="620.2139">Queries for Directions Result</text><polygon fill="#A80036" points="478.5,651.4219,468.5,655.4219,478.5,659.4219,474.5,655.4219" style="stroke:#A80036;stroke-width:1.0;"/><line style="stroke:#A80036;stroke-width:2.0;stroke-dasharray:2.0,2.0;" x1="472.5" x2="697.5" y1="655.4219" y2="655.4219"/><text fill="#000000" font-family="sans-serif" font-size="13" font-weight="bold" lengthAdjust="spacing" textLength="29" x="484.5" y="650.5654">[010]</text><text fill="#000000" font-family="sans-serif" font-size="13" lengthAdjust="spacing" textLength="158" x="517.5" y="650.5654">Informs for the internal error</text><polygon fill="#A80036" points="68.5,681.7734,58.5,685.7734,68.5,689.7734,64.5,685.7734" style="stroke:#A80036;stroke-width:1.0;"/><line style="stroke:#A80036;stroke-width:2.0;stroke-dasharray:2.0,2.0;" x1="62.5" x2="456.5" y1="685.7734" y2="685.7734"/><text fill="#000000" font-family="sans-serif" font-size="13" font-weight="bold" lengthAdjust="spacing" textLength="29" x="74.5" y="680.917">[011]</text><text fill="#000000" font-family="sans-serif" font-size="13" lengthAdjust="spacing" textLength="158" x="107.5" y="680.917">Informs for the internal error</text><line style="stroke:#000000;stroke-width:1.0;stroke-dasharray:2.0,2.0;" x1="30" x2="733" y1="694.7734" y2="694.7734"/><text fill="#000000" font-family="sans-serif" font-size="11" font-weight="bold" lengthAdjust="spacing" textLength="128" x="35" y="706.1924">[successful invocation]</text><polygon fill="#A80036" points="686.5,727.9609,696.5,731.9609,686.5,735.9609,690.5,731.9609" style="stroke:#A80036;stroke-width:1.0;"/><line style="stroke:#A80036;stroke-width:2.0;" x1="467.5" x2="692.5" y1="731.9609" y2="731.9609"/><text fill="#000000" font-family="sans-serif" font-size="13" font-weight="bold" lengthAdjust="spacing" textLength="29" x="474.5" y="727.1045">[012]</text><text fill="#000000" font-family="sans-serif" font-size="13" lengthAdjust="spacing" textLength="166" x="507.5" y="727.1045">Queries for Directions Result</text><polygon fill="#A80036" points="478.5,758.3125,468.5,762.3125,478.5,766.3125,474.5,762.3125" style="stroke:#A80036;stroke-width:1.0;"/><line style="stroke:#A80036;stroke-width:2.0;stroke-dasharray:2.0,2.0;" x1="472.5" x2="697.5" y1="762.3125" y2="762.3125"/><text fill="#000000" font-family="sans-serif" font-size="13" font-weight="bold" lengthAdjust="spacing" textLength="29" x="484.5" y="757.4561">[013]</text><text fill="#000000" font-family="sans-serif" font-size="13" lengthAdjust="spacing" textLength="121" x="517.5" y="757.4561">Responds with result</text><line style="stroke:#A80036;stroke-width:2.0;" x1="467.5" x2="509.5" y1="792.6641" y2="792.6641"/><line style="stroke:#A80036;stroke-width:2.0;" x1="509.5" x2="509.5" y1="792.6641" y2="805.6641"/><line style="stroke:#A80036;stroke-width:2.0;" x1="468.5" x2="509.5" y1="805.6641" y2="805.6641"/><polygon fill="#A80036" points="478.5,801.6641,468.5,805.6641,478.5,809.6641,474.5,805.6641" style="stroke:#A80036;stroke-width:1.0;"/><text fill="#000000" font-family="sans-serif" font-size="13" font-weight="bold" lengthAdjust="spacing" textLength="29" x="474.5" y="787.8076">[014]</text><text fill="#000000" font-family="sans-serif" font-size="13" lengthAdjust="spacing" textLength="161" x="507.5" y="787.8076">Renders polyline from result</text><polygon fill="#A80036" points="68.5,832.0156,58.5,836.0156,68.5,840.0156,64.5,836.0156" style="stroke:#A80036;stroke-width:1.0;"/><line style="stroke:#A80036;stroke-width:2.0;stroke-dasharray:2.0,2.0;" x1="62.5" x2="456.5" y1="836.0156" y2="836.0156"/><text fill="#000000" font-family="sans-serif" font-size="13" font-weight="bold" lengthAdjust="spacing" textLength="29" x="74.5" y="831.1592">[015]</text><text fill="#000000" font-family="sans-serif" font-size="13" lengthAdjust="spacing" textLength="161" x="107.5" y="831.1592">Renders polyline from result</text><rect fill="#EEEEEE" filter="url(#fluvtsvso0lx)" height="3" style="stroke:#EEEEEE;stroke-width:1.0;" width="763" x="0" y="886.1914"/><line style="stroke:#000000;stroke-width:1.0;" x1="0" x2="763" y1="886.1914" y2="886.1914"/><line style="stroke:#000000;stroke-width:1.0;" x1="0" x2="763" y1="889.1914" y2="889.1914"/><rect fill="#EEEEEE" filter="url(#fluvtsvso0lx)" height="24.3516" style="stroke:#000000;stroke-width:2.0;" width="82" x="340.5" y="875.0156"/><text fill="#000000" font-family="sans-serif" font-size="13" font-weight="bold" lengthAdjust="spacing" textLength="64" x="346.5" y="892.5107">Shutdown</text><polygon fill="#A80036" points="450.5,927.7188,460.5,931.7188,450.5,935.7188,454.5,931.7188" style="stroke:#A80036;stroke-width:1.0;"/><line style="stroke:#A80036;stroke-width:2.0;" x1="57.5" x2="456.5" y1="931.7188" y2="931.7188"/><text fill="#000000" font-family="sans-serif" font-size="13" font-weight="bold" lengthAdjust="spacing" textLength="29" x="64.5" y="926.8623">[016]</text><text fill="#000000" font-family="sans-serif" font-size="13" lengthAdjust="spacing" textLength="92" x="97.5" y="926.8623">Leaves web app</text><!--MD5=[87d79ca841a833b821a232dea1bdbc9b]
@startuml
skinparam sequenceArrowThickness 2
skinparam roundcorner 20

actor User
box Service
participant Client
end box
boundary Server

autonumber "<b>[000]"

== Initialization ==

User -> Client : Navigates to App Route Url
activate Client

== Runtime ==

loop 0..n

opt
User -> Client : Sets the start location marker
end

opt
User -> Client : Sets the end location marker
end

User -> Client : Presses "Get Directions" button

alt start and/or end location(s) are/is not defined
Client - -> User : Informs that the necessary location markers are not defined
else
alt connection error
Client -X Server : Queries for Directions Result
Client -> Client : Informs for the connection error
Client - -> User : Informs for the connection error
else server error
Client -> Server : Queries for Directions Result
Server - -> Client : Informs for the internal error
Client - -> User : Informs for the internal error
else successful invocation
Client -> Server : Queries for Directions Result
Server - -> Client : Responds with result
Client -> Client : Renders polyline from result
Client - -> User : Renders polyline from result
end
end

end

== Shutdown ==

User -> Client : Leaves web app
deactivate Client

@enduml

PlantUML version 1.2021.2(Sun Mar 07 13:10:27 EET 2021)
(GPL source distribution)
Java Runtime: OpenJDK Runtime Environment
JVM: Dynamic Code Evolution 64-Bit Server VM
Default Encoding: Cp1252
Language: en
Country: US
--></g></svg>